<svg width="1084" height="1312" viewBox="0 0 1084 1312" fill="none" xmlns="http://www.w3.org/2000/svg">
<rect width="1084" height="1312" fill="transparent"/>
<path d="M866 0L1082.51 375H649.494L866 0Z" fill="white"/>
<path d="M220 1L436.506 376H3.49365L220 1Z" fill="white"/>
<path d="M542 1312L0.734131 374.5L1083.27 374.5L542 1312Z" fill="#D36500"/>
<path d="M542 1312L433.747 1124.5H650.253L542 1312Z" fill="black"/>
<path d="M866 200L909.301 275H822.699L866 200Z" fill="#D36500"/>
<path d="M209 201L252.301 276H165.699L209 201Z" fill="#D36500"/>
<path d="M259 477L302.301 552H215.699L259 477Z" fill="#DC143C"/>
<path d="M816 477L859.301 552H772.699L816 477Z" fill="#DC143C"/>
</svg>
